<svg id="ifp-duck" viewBox="0 0 512 512" xmlns="http://www.w3.org/2000/svg">
<g transform="translate(0,512) scale(0.1,-0.1)" stroke="none">
<path d="M4685 4883 c-11 -3 -50 -41 -87 -86 -37 -45 -125 -152 -195 -237
-887 -1069 -844 -1019 -866 -1019 -10 -1 -17 2 -15 7 2 4 16 31 32 61 26 50
27 56 12 67 -9 6 -14 18 -11 26 7 17 -9 31 -46 44 l-27 9 54 88 c30 48 54 91
54 95 0 4 -11 20 -23 36 -22 27 -26 28 -55 18 -18 -6 -32 -8 -32 -5 0 4 23 53
52 111 l52 104 -25 45 c-27 51 -34 57 -51 47 -7 -4 -22 -8 -35 -9 -12 0 -36
-14 -53 -30 -16 -16 -30 -27 -30 -24 0 2 13 53 29 114 19 71 26 116 20 126 -4
9 -6 18 -4 21 3 3 -14 18 -38 35 -48 35 -87 35 -113 -1 -14 -19 -14 -11 -8 84
3 58 10 109 14 114 5 5 -7 33 -27 62 l-36 54 -29 -18 c-17 -9 -34 -26 -38 -37
-4 -11 -38 -83 -75 -160 -37 -77 -68 -151 -70 -165 -1 -14 -43 -92 -95 -175
-51 -82 -136 -221 -189 -308 -73 -121 -150 -224 -325 -440 -126 -155 -253
-312 -282 -349 l-54 -67 0 -115 0 -116 25 0 c14 0 25 -4 25 -9 0 -4 -11 -63
-25 -129 -14 -66 -25 -123 -25 -125 0 -5 -159 -15 -299 -19 -94 -3 -94 -3
-110 25 -10 17 -59 55 -123 95 -59 37 -151 94 -204 127 -54 33 -142 88 -198
123 -65 40 -108 61 -121 58 -11 -3 -90 -8 -175 -11 l-155 -7 -85 -89 -85 -89
-100 -20 c-55 -11 -125 -26 -155 -32 -70 -14 -80 -22 -80 -65 0 -36 -4 -33
115 -83 64 -26 196 -70 230 -76 22 -4 48 -11 57 -15 9 -5 50 -13 90 -18 40 -6
84 -12 98 -15 14 -3 96 -18 183 -34 145 -26 160 -31 190 -60 18 -18 39 -32 46
-32 13 0 71 -53 71 -65 0 -4 11 -16 25 -27 14 -11 32 -33 41 -49 8 -16 70
-114 137 -217 67 -104 127 -195 132 -204 6 -8 42 -62 81 -119 38 -57 68 -112
66 -121 -2 -11 14 -30 50 -55 54 -39 179 -130 517 -378 l191 -140 0 -245 c1
-255 5 -280 44 -280 14 0 16 -13 16 -90 0 -82 2 -90 19 -90 11 0 25 -2 33 -5
7 -3 51 22 97 55 73 52 84 64 86 92 2 24 -5 41 -26 66 -34 39 -35 44 -10 66
29 27 23 93 -12 120 -26 21 -27 24 -27 130 0 105 1 107 22 104 18 -2 26 -17
46 -88 13 -47 32 -104 43 -127 l19 -43 350 0 c305 0 350 2 350 15 0 9 47 39
123 76 89 44 126 69 135 87 8 17 12 77 12 168 0 85 4 145 10 149 6 3 10 10 10
15 0 5 -65 67 -145 138 -96 86 -151 129 -162 126 -13 -3 -50 37 -136 147 -66
83 -115 155 -110 159 4 5 31 13 58 18 121 24 240 64 257 86 9 12 75 71 147
131 l131 110 0 110 c0 71 4 115 12 123 6 6 11 29 10 50 -1 27 6 51 23 76 14
20 25 40 25 44 0 4 58 66 130 137 128 128 129 130 124 167 -4 20 -3 71 1 113
6 71 8 76 38 92 18 9 37 16 44 15 6 -1 38 28 70 65 32 37 91 102 132 145 l73
77 -37 45 -37 46 31 35 c17 20 31 40 31 45 0 5 22 44 50 87 42 66 47 79 36 93
-7 8 -16 22 -19 31 -3 9 -22 20 -43 23 l-37 8 113 113 113 113 -17 36 c-9 20
-20 36 -24 36 -4 0 -13 4 -20 9 -10 6 7 39 65 132 l78 124 0 275 0 274 -30 15
c-16 8 -38 18 -47 23 -18 8 -48 9 -83 1z"/></g></svg>
