<svg id="ifp-eagle" viewBox="0 0 512 512" xmlns="http://www.w3.org/2000/svg">
<g transform="translate(0,512) scale(0.1,-0.1)" stroke="none">
<path d="M4970 4436 c-8 -13 -58 -71 -111 -128 -52 -56 -142 -154 -198 -217
-75 -83 -118 -121 -159 -143 -31 -17 -61 -34 -67 -38 -5 -4 -26 -17 -45 -28
-19 -11 -123 -70 -230 -132 -107 -62 -206 -118 -220 -125 -15 -7 -113 -18
-235 -24 -115 -7 -258 -16 -318 -21 -99 -9 -133 -6 -445 35 -339 44 -558 62
-817 67 -118 3 -172 -2 -343 -30 -233 -37 -248 -40 -282 -58 -14 -8 -116 -43
-227 -79 l-202 -65 -59 -63 c-32 -34 -101 -109 -152 -167 -52 -58 -121 -133
-154 -167 -33 -34 -56 -66 -52 -70 4 -5 21 -13 39 -19 63 -21 65 -20 -242
-207 l-173 -106 -45 -73 c-24 -40 -54 -86 -65 -101 -12 -18 -17 -34 -12 -45 4
-9 22 -60 39 -112 l30 -94 164 -153 c91 -84 171 -153 179 -153 12 0 13 19 7
118 -5 94 -4 120 7 128 11 9 161 64 439 161 42 14 63 14 290 -6 229 -20 608
-59 1149 -117 129 -13 244 -29 255 -34 11 -5 160 -25 331 -45 310 -35 310 -35
435 -20 122 14 417 83 442 103 6 5 80 44 162 85 83 42 166 91 185 109 20 18
96 87 170 154 l135 121 114 224 c62 123 118 230 124 237 7 9 1 12 -25 12 -28
0 -43 -10 -87 -54 -44 -44 -69 -60 -140 -87 -207 -78 -403 -153 -493 -189
l-98 -38 -177 20 c-98 11 -182 24 -188 29 -20 19 27 39 270 114 236 73 254 80
330 133 44 32 99 71 123 87 24 17 72 50 107 75 35 25 85 70 112 101 156 182
211 246 235 272 16 18 62 122 121 276 l96 246 6 163 c6 133 5 162 -7 162 -7 0
-20 -11 -28 -24z m-3125 -1333 c0 -7 -41 -39 -92 -73 -51 -33 -95 -65 -98 -70
-3 -5 -11 -37 -16 -71 -8 -49 -22 -80 -71 -154 l-61 -94 -66 -8 c-98 -12 -309
-8 -369 6 -50 12 -80 39 -68 60 3 4 27 6 54 3 64 -6 253 15 296 33 23 10 37
25 45 46 10 30 16 219 6 219 -33 0 -96 -70 -109 -122 -8 -33 -49 -63 -98 -71
-30 -5 -43 0 -77 26 -23 17 -41 34 -41 37 0 4 41 35 91 71 50 35 103 74 118
86 22 18 69 28 247 56 225 36 309 41 309 20z"/>
<path d="M1350 2178 c-160 -29 -161 -29 -204 -103 -22 -38 -35 -70 -30 -75 8
-8 452 -77 539 -84 22 -2 119 -24 215 -49 96 -24 195 -50 220 -57 25 -6 68
-17 95 -24 28 -7 187 -63 355 -125 168 -61 355 -130 417 -152 116 -42 138 -43
177 -10 18 15 166 188 254 296 57 70 50 84 -55 115 -43 12 -91 28 -108 35 -16
7 -55 17 -85 23 -56 11 -509 99 -680 131 -52 10 -102 19 -110 20 -8 0 -125 16
-260 35 -308 43 -588 52 -740 24z"/>
<path d="M1764 1829 c-8 -14 -10 -12 121 -102 61 -41 128 -92 150 -113 251
-235 330 -316 367 -374 88 -141 102 -160 113 -160 6 0 50 -64 98 -143 114
-186 146 -206 162 -99 7 47 31 100 119 265 l47 87 -33 68 c-27 55 -56 90 -168
198 l-135 132 -400 126 c-220 69 -408 126 -417 126 -9 0 -20 -5 -24 -11z"/></g></svg>