<svg id="ifp-krasnolud" viewBox="0 0 512 512" xmlns="http://www.w3.org/2000/svg">
<g transform="translate(0,512) scale(0.1,-0.1)" stroke="none">
<path d="M1038 5038 c-9 -7 -42 -49 -74 -93 -32 -44 -63 -84 -70 -90 -7 -5
-24 -89 -39 -185 -14 -96 -30 -191 -35 -210 -7 -23 -4 -104 7 -245 l16 -210
131 -226 c98 -170 139 -232 164 -248 18 -12 37 -21 42 -19 16 6 250 369 250
388 0 10 5 22 10 25 6 4 -48 67 -118 142 l-129 135 -51 151 -51 152 -6 230
c-6 235 -12 315 -24 315 -4 0 -14 -6 -23 -12z"/>
<path d="M4129 5047 c-4 -4 -6 -70 -13 -297 l-7 -245 -51 -152 -51 -151 -129
-135 c-70 -75 -124 -138 -118 -142 5 -3 10 -15 10 -25 0 -15 219 -360 246
-389 2 -2 20 4 39 15 30 16 57 56 169 249 l133 230 16 212 c10 135 13 223 7
245 -5 18 -21 112 -36 208 -19 124 -31 180 -43 191 -9 9 -43 52 -75 96 -32 45
-66 83 -77 86 -10 3 -20 4 -20 4z"/>
<path d="M2398 4356 c-130 -46 -151 -57 -209 -107 -35 -31 -91 -75 -124 -99
-33 -24 -103 -84 -156 -134 -109 -101 -110 -106 -29 -145 115 -54 247 -202
345 -386 70 -130 89 -203 82 -315 -3 -47 -12 -105 -21 -130 -9 -24 -14 -50
-12 -57 7 -17 641 -19 651 -3 4 6 -2 34 -12 63 -25 72 -25 242 0 312 46 128
157 303 254 400 54 54 151 125 171 125 5 0 18 10 30 23 l21 22 -97 91 c-53 49
-124 110 -157 134 -33 23 -89 68 -125 100 -58 50 -79 61 -205 105 -191 66
-219 66 -407 1z"/>
<path d="M1463 3857 c-33 -37 -233 -355 -233 -370 0 -34 192 -182 227 -175 22
4 232 365 232 399 1 14 -5 32 -11 41 -10 13 -96 69 -184 121 -6 3 -20 -4 -31
-16z"/>
<path d="M3625 3823 c-101 -62 -115 -76 -114 -112 1 -34 210 -395 232 -399 35
-7 227 141 227 175 0 13 -46 88 -186 303 -63 98 -56 97 -159 33z"/>
<path d="M1756 3739 c-33 -50 -65 -101 -71 -113 -6 -11 -29 -52 -51 -91 -22
-38 -52 -97 -67 -131 -57 -129 -103 -377 -76 -410 9 -12 69 -14 354 -14 l344
0 26 57 c78 163 48 345 -87 543 -64 94 -249 250 -295 250 -12 0 -39 -32 -77
-91z"/>
<path d="M3288 3787 c-158 -118 -230 -202 -298 -349 -58 -124 -62 -279 -9
-395 l28 -63 344 0 c277 0 347 3 356 14 23 27 -7 227 -53 354 -22 60 -84 182
-148 287 -97 161 -122 195 -143 194 -11 0 -45 -19 -77 -42z"/>
<path d="M1406 2918 c-11 -35 -28 -180 -21 -186 9 -9 2421 -9 2431 1 4 4 1 49
-7 100 l-14 92 -1193 3 c-949 2 -1193 0 -1196 -10z"/>
<path d="M1765 2660 l-120 -5 2 -95 c2 -73 6 -97 18 -106 40 -30 578 -295 589
-291 9 4 13 45 15 150 l2 145 -54 25 c-29 14 -78 35 -108 47 -121 48 -179 80
-190 104 -7 14 -17 26 -23 28 -6 2 -65 1 -131 -2z"/>
<path d="M2326 2658 c-3 -7 -7 -96 -10 -198 -3 -102 -9 -217 -12 -257 -7 -72
-7 -72 20 -83 36 -13 516 -13 552 0 l27 11 -7 82 c-3 45 -9 156 -12 247 -3 91
-7 175 -10 188 l-4 22 -271 0 c-207 0 -271 -3 -273 -12z"/>
<path d="M3282 2635 c-12 -27 -56 -50 -226 -120 -140 -58 -127 -38 -125 -204
2 -104 6 -144 15 -148 11 -4 549 262 590 292 14 10 17 30 18 106 l1 94 -131 3
-131 3 -11 -26z"/>
<path d="M1468 2629 c-15 -8 -18 -26 -18 -120 0 -90 3 -111 16 -116 20 -7 55
12 105 58 l40 37 -3 73 -3 74 -60 2 c-33 2 -68 -2 -77 -8z"/>
<path d="M3597 2633 c-4 -3 -7 -39 -7 -80 l0 -73 58 -45 c33 -26 65 -44 77
-43 18 3 20 12 23 113 2 95 0 111 -15 122 -17 13 -125 18 -136 6z"/>
<path d="M1463 2334 c-70 -48 -142 -97 -158 -109 -17 -12 -116 -52 -220 -88
l-190 -65 1 -30 c3 -69 105 -257 197 -366 l34 -39 79 32 c113 47 239 111 321
164 38 25 77 47 85 48 9 2 90 73 182 158 114 105 166 160 166 175 0 17 -33 38
-175 114 -96 50 -179 92 -184 92 -5 0 -67 -39 -138 -86z"/>
<path d="M3413 2327 c-140 -74 -173 -96 -173 -113 0 -15 52 -70 166 -175 92
-85 174 -156 183 -158 9 -1 23 -8 31 -15 52 -42 219 -129 364 -192 l89 -38 34
40 c92 109 193 297 197 366 l1 30 -190 65 c-104 36 -197 71 -205 78 -42 34
-303 205 -313 204 -7 0 -90 -41 -184 -92z"/>
<path d="M1930 2067 c-182 -179 -360 -312 -535 -402 -88 -45 -315 -125 -354
-125 -11 0 -23 -5 -26 -10 -10 -17 130 -207 224 -302 87 -90 218 -198 241
-198 52 0 1010 961 1010 1013 0 18 -48 27 -146 27 -77 0 -80 1 -194 88 -30 23
-62 42 -70 42 -8 0 -76 -60 -150 -133z"/>
<path d="M3050 2158 c-114 -87 -117 -88 -194 -88 -106 0 -148 -9 -144 -30 10
-59 904 -959 995 -1002 19 -9 32 -3 96 46 40 31 112 95 158 144 94 95 234 285
224 302 -3 5 -15 10 -26 10 -28 0 -229 66 -304 100 -168 75 -397 242 -585 426
-75 74 -143 134 -151 134 -8 0 -39 -19 -69 -42z"/>
<path d="M2537 2028 c-9 -7 -55 -71 -102 -142 -80 -122 -98 -167 -58 -152 62
24 254 32 363 16 100 -16 103 -16 107 -4 5 15 -172 280 -192 288 -28 10 -100
7 -118 -6z"/>
<path d="M2465 1661 c-91 -25 -118 -36 -132 -52 -6 -8 -21 -84 -34 -169 -12
-85 -28 -162 -34 -170 -7 -8 -37 -108 -68 -222 l-56 -206 -84 -108 -84 -108
78 -91 c102 -120 183 -195 328 -304 230 -174 215 -175 455 9 137 105 216 179
315 295 l78 91 -84 108 -84 108 -56 206 c-31 114 -62 214 -68 222 -6 8 -22 85
-34 170 -26 178 -26 178 -129 211 -96 30 -219 34 -307 10z"/>
<path d="M2199 1608 c-9 -7 -70 -74 -136 -148 -135 -152 -346 -359 -428 -421
-30 -23 -55 -47 -55 -54 0 -19 81 -115 147 -175 62 -55 179 -130 205 -130 31
0 174 243 218 370 12 36 33 92 46 125 29 75 84 360 77 398 -4 18 -15 32 -30
38 -30 11 -26 11 -44 -3z"/>
<path d="M2961 1611 c-16 -4 -27 -17 -32 -34 -10 -37 43 -321 75 -402 13 -33
34 -89 46 -125 46 -133 186 -370 218 -370 26 0 143 75 205 130 66 59 147 156
147 174 0 7 -28 35 -62 62 -90 70 -303 280 -421 414 -96 109 -146 161 -150
159 -1 -1 -13 -4 -26 -8z"/></g></svg>