<svg id="ifp-lis" class="ifp-svg" viewBox="0 0 512 512" xmlns="http://www.w3.org/2000/svg">
<g transform="translate(0,512) scale(0.1,-0.1)" stroke="none">
<path d="M2473 5039 c-35 -11 -63 -23 -63 -28 0 -5 -51 -78 -112 -162 l-113
-154 -86 -254 -86 -255 -154 -59 c-152 -58 -157 -61 -394 -229 -132 -94 -248
-180 -259 -192 -10 -11 -110 -124 -222 -251 l-203 -230 -103 -207 c-98 -200
-101 -208 -83 -222 24 -17 33 -13 125 54 92 66 92 66 79 33 -6 -15 -42 -116
-79 -223 -38 -107 -84 -238 -103 -292 -20 -53 -33 -98 -31 -101 3 -3 14 -166
23 -364 l19 -358 71 -185 c156 -402 152 -395 188 -398 30 -3 31 -2 38 48 l7
51 47 -98 c60 -127 64 -132 141 -185 36 -25 104 -74 150 -110 121 -93 461
-308 497 -314 12 -2 60 -18 105 -35 46 -16 100 -35 122 -40 21 -5 48 -15 60
-21 11 -7 41 -15 66 -18 25 -4 115 -27 200 -52 l155 -45 295 8 c237 6 315 12
395 28 350 73 377 79 390 98 19 24 18 34 -4 60 -17 20 -42 24 -422 57 -222 20
-423 38 -446 41 -31 3 -127 54 -370 195 l-328 190 -142 160 c-78 88 -146 159
-150 158 -8 -3 -84 144 -78 150 2 2 42 -13 91 -33 91 -38 103 -37 104 9 0 10
-36 85 -80 167 l-80 147 0 164 0 164 51 124 c28 69 60 134 70 145 19 19 19 19
19 -38 l0 -58 33 3 c27 3 61 33 225 204 l193 202 137 52 c75 29 147 59 159 66
17 11 73 14 236 14 l213 0 124 -44 c179 -63 352 -129 450 -171 47 -20 96 -40
110 -45 41 -14 251 -100 269 -110 28 -17 -14 -12 -179 20 -163 32 -271 59
-356 90 -80 29 -266 44 -382 29 -184 -22 -300 -92 -422 -254 -64 -86 -79 -155
-80 -366 0 -169 4 -193 48 -319 57 -162 243 -380 432 -505 36 -24 89 -63 118
-88 51 -42 68 -49 326 -126 149 -44 276 -81 282 -81 6 0 21 18 33 41 22 39 22
41 5 60 -10 11 -49 29 -88 41 -158 48 -238 103 -430 297 -82 82 -153 148 -157
145 -15 -9 -57 82 -104 224 l-47 142 44 172 43 171 93 60 c50 32 92 64 92 69
0 8 76 9 242 4 l242 -8 130 -39 130 -39 288 0 288 0 100 77 c55 43 100 84 100
92 0 9 -21 37 -47 64 l-48 48 -5 99 -5 99 -205 152 c-113 83 -239 177 -281
208 l-76 56 -154 270 c-136 240 -188 332 -302 535 -60 108 -157 236 -223 295
-143 126 -227 176 -376 220 -93 28 -84 7 -119 270 -11 78 -44 186 -109 350
-26 66 -42 90 -92 138 -106 102 -120 106 -215 76z m201 -454 l56 -160 0 -124
0 -125 -28 27 c-26 25 -82 38 -82 20 0 -5 -16 -26 -34 -48 l-34 -40 -25 23
c-36 34 -55 19 -116 -85 -28 -49 -49 -77 -47 -63 3 14 15 86 26 160 20 128 26
146 118 362 53 125 100 224 104 220 4 -4 32 -79 62 -167z m503 -1252 c85 -33
166 -94 210 -156 34 -48 40 -85 12 -78 -18 4 -118 26 -191 41 -49 10 -63 17
-91 53 -35 43 -73 140 -62 157 10 17 52 11 122 -17z"/>
<path d="M3695 4416 c-71 -34 -200 -95 -287 -136 -134 -63 -157 -77 -161 -99
-3 -14 0 -32 6 -40 21 -25 117 -92 154 -107 33 -14 39 -13 126 20 50 20 92 34
94 33 1 -2 -9 -46 -24 -98 -40 -144 -40 -144 7 -234 23 -44 46 -85 51 -91 9
-11 66 -7 73 5 2 3 34 114 71 246 36 132 77 279 91 327 13 48 24 94 24 103 0
12 -45 112 -54 121 -17 17 -59 4 -171 -50z"/>
<path d="M4704 2432 c-34 -29 -40 -87 -13 -144 25 -53 41 -61 105 -56 37 3 40
6 70 68 36 76 34 83 -37 123 -56 31 -95 34 -125 9z"/></g></svg>