<svg id="ifp-logo" viewBox="0 0 256 256" xmlns="http://www.w3.org/2000/svg">
<g transform="translate(0,256) scale(0.1,-0.1)" stroke="none">
<path d="M360 2511 c-6 -12 -10 -104 -10 -230 l0 -211 53 -58 c28 -31 83 -92
121 -135 l69 -78 -11 -52 c-6 -29 -36 -171 -66 -317 -31 -146 -78 -372 -105
-503 l-51 -237 78 -73 c187 -178 306 -287 311 -287 3 0 44 75 91 167 l85 167
145 64 c80 35 161 70 181 78 35 15 36 14 215 -66 l179 -81 83 -164 c46 -91 86
-165 91 -165 7 0 138 121 302 280 l87 85 -48 225 c-75 343 -180 854 -180 870
1 8 52 73 115 145 l115 129 0 217 c0 120 -3 224 -6 233 -5 14 -29 16 -163 16
l-156 -1 -90 -105 c-49 -57 -106 -123 -126 -146 l-36 -41 -34 23 c-19 13 -36
27 -39 30 -3 3 -18 14 -33 24 -25 15 -54 18 -242 18 -233 0 -221 2 -309 -67
l-38 -30 -44 50 c-24 28 -81 94 -126 147 l-83 97 -157 0 c-146 1 -158 0 -168
-18z m430 -519 c0 -19 -4 -32 -9 -30 -6 2 -38 26 -71 53 -124 100 -116 91
-101 109 12 14 22 9 97 -42 77 -52 84 -60 84 -90z m1165 102 c-11 -8 -52 -41
-91 -74 -40 -33 -75 -60 -78 -60 -3 0 -6 15 -6 33 0 31 7 38 83 89 72 49 84
54 97 41 13 -13 13 -16 -5 -29z m-981 -493 c20 -8 109 -194 98 -205 -3 -3 -53
-6 -112 -6 l-106 0 -32 98 c-18 54 -32 103 -32 110 0 14 151 16 184 3z m806
-5 c0 -7 -15 -56 -34 -107 l-34 -94 -102 -3 c-57 -1 -107 1 -111 5 -9 11 67
185 88 201 25 18 193 17 193 -2z m-1167 -645 c19 -46 38 -76 51 -81 12 -5 65
-29 119 -54 l98 -46 -43 -55 c-24 -30 -49 -53 -56 -52 -7 1 -62 40 -122 87
l-109 85 -1 91 c0 132 15 138 63 25z m1401 63 c3 -9 6 -51 6 -95 l0 -79 -112
-90 c-62 -49 -118 -90 -123 -90 -6 0 -30 25 -53 55 l-43 55 106 50 c59 28 111
50 116 50 5 0 13 10 18 23 28 70 62 137 70 137 5 0 12 -7 15 -16z"/>
<path d="M853 1544 c-3 -9 -2 -33 3 -53 l9 -36 68 -3 c64 -3 67 -2 67 20 0 13
-14 38 -30 56 -24 26 -37 32 -70 32 -28 0 -43 -5 -47 -16z"/>
<path d="M1597 1526 c-15 -19 -27 -44 -27 -55 0 -19 6 -21 64 -21 36 0 67 3
69 8 3 4 7 27 8 52 l4 45 -46 3 c-42 3 -48 0 -72 -32z"/>
<path d="M1018 549 l-198 -181 0 -63 0 -63 82 -111 82 -111 300 0 301 0 80
110 80 110 -2 67 c-3 63 -5 70 -36 98 -19 17 -106 96 -194 178 l-161 147 -68
0 -69 0 -197 -181z m192 -142 c0 -59 -3 -67 -45 -125 -25 -35 -50 -60 -55 -57
-16 10 -11 28 20 69 26 34 30 48 30 101 0 67 4 75 32 75 16 0 18 -9 18 -63z
m200 -12 c4 -57 10 -77 34 -108 21 -28 26 -41 18 -49 -15 -15 -32 0 -71 61
-26 40 -31 58 -31 110 0 59 1 62 23 59 20 -3 22 -10 27 -73z"/></g></svg>