<svg id="ifp-sowa" class="ifp-svg" viewBox="0 0 512 512" xmlns="http://www.w3.org/2000/svg">
<g transform="translate(0,512) scale(0.1,-0.1)" stroke="none">
<path d="M2380 4469 c-74 -15 -146 -33 -160 -38 -14 -5 -38 -12 -55 -16 -16
-3 -64 -16 -105 -28 -69 -20 -82 -29 -185 -123 l-111 -101 -34 17 c-19 10 -55
26 -80 37 -173 77 -203 86 -228 61 -16 -16 -15 -63 1 -75 12 -10 204 -95 240
-107 17 -6 16 -9 -12 -41 -17 -20 -31 -42 -31 -50 0 -8 -17 -52 -39 -97 -21
-46 -56 -121 -77 -167 l-39 -83 3 -499 c2 -275 1 -499 -1 -499 -3 0 -30 19
-61 43 -30 23 -72 53 -91 67 -36 25 -105 75 -205 150 -30 22 -82 60 -115 84
-78 57 -86 65 -180 190 -44 58 -116 153 -160 211 -44 57 -95 125 -114 150 -62
84 -93 66 -273 -151 l-76 -92 -7 -314 c-6 -277 -5 -318 8 -344 62 -115 503
-563 587 -597 25 -10 90 -40 145 -67 55 -28 118 -56 140 -64 22 -8 64 -23 93
-35 28 -12 75 -30 102 -41 28 -11 74 -30 103 -41 28 -12 79 -29 112 -37 33 -9
61 -17 62 -17 1 0 6 -27 12 -60 6 -33 15 -87 21 -120 6 -33 17 -96 25 -140 8
-44 19 -106 24 -137 23 -123 32 -176 46 -257 8 -46 20 -91 28 -100 8 -9 24
-34 36 -56 12 -22 37 -60 56 -85 19 -25 44 -61 55 -80 19 -33 72 -112 137
-204 24 -34 60 -55 273 -160 329 -163 291 -163 620 0 213 105 249 126 273 160
65 92 118 171 137 204 11 19 36 55 55 80 19 25 44 63 56 85 12 22 28 47 36 56
8 9 20 54 28 100 14 81 23 134 46 257 5 31 16 93 24 137 8 44 19 107 25 140 6
33 15 87 21 120 6 33 11 60 12 60 1 0 29 8 62 17 33 8 84 25 113 37 28 11 75
30 102 41 28 11 74 29 103 41 28 12 70 27 92 35 22 8 85 36 140 64 55 27 120
57 145 67 84 34 525 482 587 597 13 26 14 67 8 344 l-7 314 -76 92 c-180 217
-211 235 -273 151 -19 -25 -70 -93 -114 -150 -44 -58 -116 -153 -160 -211 -94
-125 -102 -133 -180 -190 -33 -24 -85 -62 -115 -84 -100 -75 -169 -125 -205
-150 -19 -14 -61 -44 -91 -67 -31 -24 -58 -43 -61 -43 -2 0 -3 224 -1 499 l3
499 -39 83 c-21 46 -56 121 -77 167 -22 45 -39 89 -39 97 0 8 -14 30 -31 50
-28 32 -29 35 -12 41 36 12 228 97 241 107 15 12 16 59 0 75 -25 25 -55 16
-228 -61 -25 -11 -61 -27 -80 -37 l-34 -17 -111 101 c-103 94 -116 103 -185
123 -41 13 -91 26 -110 29 -19 4 -42 10 -50 15 -27 13 -312 69 -349 68 -20 -1
-97 -14 -171 -30z m335 -205 c99 -12 146 -21 160 -33 11 -10 33 -26 49 -37 16
-10 41 -28 56 -39 15 -11 50 -36 79 -55 28 -19 47 -38 43 -42 -4 -3 -59 -29
-122 -57 -63 -27 -118 -56 -122 -63 -3 -7 -20 -49 -38 -93 -17 -44 -39 -98
-49 -120 -10 -22 -35 -80 -56 -130 -20 -49 -43 -103 -50 -120 -71 -164 -88
-211 -93 -250 -6 -58 -18 -58 -24 0 -5 39 -22 86 -93 250 -7 17 -30 71 -50
120 -21 50 -46 108 -56 130 -10 22 -32 76 -49 120 -18 44 -35 86 -38 93 -4 7
-59 36 -122 63 -63 28 -118 54 -122 57 -4 4 15 23 43 42 29 19 64 44 79 55 15
11 40 29 56 39 16 11 37 27 47 35 12 10 65 22 140 32 162 22 170 22 332 3z
m-718 -317 c15 -8 60 -28 98 -45 73 -30 81 -40 121 -137 63 -153 90 -217 107
-255 23 -52 37 -87 62 -150 10 -25 26 -61 36 -80 22 -43 32 -104 58 -360 33
-307 31 -300 81 -300 50 0 48 -7 81 300 26 256 36 317 58 360 10 19 26 55 36
80 25 63 39 98 62 150 17 38 44 102 107 255 40 97 48 107 121 137 39 17 83 37
98 45 72 38 76 37 144 -51 34 -45 72 -94 84 -109 12 -16 33 -72 46 -125 13
-53 30 -121 38 -150 16 -64 12 -92 -48 -347 l-43 -180 -69 -85 c-144 -174
-210 -244 -240 -252 -17 -5 -64 -18 -105 -29 -41 -11 -108 -29 -147 -40 -40
-10 -107 -27 -148 -38 -82 -20 -75 -21 -297 38 -40 11 -107 29 -148 40 -41 11
-88 24 -105 29 -30 8 -96 78 -240 252 l-69 85 -43 180 c-60 255 -64 283 -48
347 8 29 25 97 38 150 15 58 34 109 48 127 13 16 51 66 84 109 65 86 69 88
142 49z"/>
<path d="M1929 3707 c-124 -47 -198 -139 -207 -258 -9 -135 45 -232 163 -290
60 -29 71 -31 143 -27 179 10 294 138 280 312 -8 98 -56 180 -135 228 -51 33
-70 39 -134 43 -50 4 -86 1 -110 -8z m109 -129 c7 -7 12 -26 12 -43 0 -39 -16
-55 -55 -55 -39 0 -55 16 -55 55 0 39 16 55 55 55 17 0 36 -5 43 -12z"/>
<path d="M3030 3711 c-19 -4 -60 -23 -90 -43 -139 -89 -173 -310 -66 -435 54
-62 126 -96 218 -101 72 -4 83 -2 143 27 118 58 172 155 163 289 -13 178 -186
302 -368 263z m138 -133 c7 -7 12 -26 12 -43 0 -17 -5 -36 -12 -43 -7 -7 -26
-12 -43 -12 -17 0 -36 5 -43 12 -7 7 -12 26 -12 43 0 17 5 36 12 43 7 7 26 12
43 12 17 0 36 -5 43 -12z"/></g></svg>