<svg viewBox="0 0 512 512" xmlns="http://www.w3.org/2000/svg" width="512" height="512">
<g transform="translate(0,512) scale(0.1,-0.1)" stroke="none">
<path d="M4427 5002 c-10 -10 -59 -102 -111 -203 l-93 -184 -72 -50 c-52 -37
-80 -64 -101 -102 -35 -61 -144 -208 -163 -220 -7 -4 -30 -29 -51 -56 -34 -42
-47 -50 -113 -69 -84 -24 -83 -23 -210 -213 -69 -103 -78 -126 -63 -155 9 -17
21 -20 80 -20 39 0 70 -4 70 -10 0 -5 -45 -71 -100 -146 -55 -75 -104 -142
-108 -149 -4 -7 -153 -77 -331 -155 -179 -78 -330 -147 -335 -154 -8 -10 -113
-18 -401 -30 -361 -16 -390 -19 -403 -37 -20 -28 -149 -123 -317 -234 -82 -54
-179 -126 -216 -159 -36 -34 -173 -140 -305 -238 -131 -97 -248 -188 -260
-202 -20 -25 -40 -30 -395 -91 -206 -36 -378 -65 -383 -65 -13 0 -1 -65 39
-207 27 -92 43 -133 53 -133 8 0 12 -6 9 -14 -4 -10 28 -20 135 -40 78 -15
153 -33 169 -41 15 -8 52 -15 81 -15 29 -1 105 -11 168 -24 l114 -24 235 39
c130 22 238 44 241 48 17 29 145 171 169 189 l28 21 8 -135 7 -135 -146 -239
c-143 -234 -145 -239 -131 -267 9 -18 23 -139 40 -348 l27 -319 81 -78 c45
-42 89 -77 98 -78 20 0 67 15 147 47 51 21 62 30 62 49 0 13 5 26 11 30 7 4
-9 27 -42 60 l-53 53 -12 163 c-7 90 -13 190 -14 224 l0 60 123 136 c67 74
180 201 252 281 71 80 132 144 134 142 2 -2 -42 -97 -98 -211 l-102 -207 74
-191 c41 -105 80 -209 87 -231 15 -45 39 -86 57 -98 7 -4 13 -16 13 -26 0 -15
13 -20 72 -29 40 -6 104 -13 141 -16 65 -4 69 -3 77 20 5 13 17 24 25 24 11 0
15 6 12 17 -3 10 -13 48 -22 85 -16 60 -20 67 -39 63 -12 -2 -41 3 -65 13
l-45 17 -28 110 c-15 61 -28 119 -28 131 0 22 134 229 148 229 9 0 160 137
266 240 37 36 91 107 136 180 l75 120 76 3 76 3 174 -108 174 -109 7 -49 c11
-72 25 -808 16 -821 -18 -24 7 -92 64 -173 32 -47 58 -92 58 -101 0 -36 23
-41 180 -38 l153 3 28 35 c29 35 29 35 11 71 -9 20 -51 64 -96 100 -44 35 -85
77 -91 94 -11 26 -5 87 38 417 28 213 52 386 54 384 4 -4 32 -457 41 -666 l7
-185 50 -69 c28 -38 67 -88 88 -111 20 -23 37 -47 37 -54 0 -7 36 -11 115 -11
64 0 115 4 115 9 0 5 9 12 19 16 12 4 21 19 25 43 4 20 9 44 12 53 3 11 -3 19
-18 23 -13 4 -62 53 -111 111 l-87 103 73 501 74 502 30 32 c17 18 63 97 103
176 39 79 75 148 80 155 5 6 21 25 34 41 14 17 42 51 61 77 20 26 47 51 60 54
15 4 25 13 25 24 0 10 31 85 68 167 l69 150 -5 130 -5 130 29 22 c28 22 29 25
32 129 2 75 7 110 17 118 11 8 7 38 -24 175 -21 90 -49 210 -61 266 l-23 103
37 55 c36 55 37 59 46 188 6 73 14 150 19 172 7 25 7 41 1 43 -16 6 -12 19 45
148 52 117 56 132 66 245 12 138 9 149 -51 149 -33 0 -44 -7 -83 -50 l-44 -49
-7 46 c-3 25 -6 87 -6 138 0 50 -3 95 -7 99 -5 4 -8 13 -8 19 0 9 -228 145
-246 147 -3 0 -13 -8 -22 -18z"/></g></svg>